<svg width="16" height="16" viewBox="0 0 16 16" fill="none" xmlns="http://www.w3.org/2000/svg">
<path fill-rule="evenodd" clip-rule="evenodd" d="M7.03951 0.5C3.42784 0.5 0.5 3.42784 0.5 7.03951C0.5 10.6512 3.42784 13.579 7.03951 13.579C8.55072 13.579 9.9422 13.0664 11.0496 12.2056L14.1045 15.2606L14.1816 15.3286C14.5022 15.5779 14.9659 15.5553 15.2606 15.2606C15.5798 14.9413 15.5798 14.4238 15.2606 14.1045L12.2056 11.0496C13.0664 9.9422 13.579 8.55072 13.579 7.03951C13.579 3.42784 10.6512 0.5 7.03951 0.5ZM7.03951 2.13488C9.74826 2.13488 11.9441 4.33076 11.9441 7.03951C11.9441 9.74826 9.74826 11.9441 7.03951 11.9441C4.33076 11.9441 2.13488 9.74826 2.13488 7.03951C2.13488 4.33076 4.33076 2.13488 7.03951 2.13488Z" fill="#363F4D"/>
</svg>
